. 
  
http://www.torrenting.com/        :     Greatest Movie Tracker on The Net!!!
 
http://www.Torrenting.com          :     Once & For all ;)


               www . Torrenting . Com 

(((((((((((((= Enjoy No RAR releases =))))))))))))))))))))


...................................NFO:....................................

.[img]http://img683.imageshack.us/img683/763/snowtownblurayhires.jpg[/img]

[color=blue][size=5][b]Snowtown.2011.BDRip.XVID.AC3.HQ.Hive-CM8[/b][/size][/color]


[b]Thx Hive


CM8 Doing It Right The First Time :D


Source: Bluray

Video: 720x384 @bitrate 1700 2pass
Audio: English TrueHD AC3 640 to AC3 5.1 @384
Sample: yes included
Subs: yes english in srt /subs[/b]


[url]http://www.imdb.com/title/tt1680114/[/url]


General
Complete name                    : Snowtown.2011.BDRip.XVID.AC3.HQ.Hive-CM8.avi
Format                           : AVI
Format/Info                      : Audio Video Interleave
File size                        : 1.82 GiB
Duration                         : 2h 0mn
Overall bit rate                 : 2 167 Kbps
Writing application              : Nandub v1.0rc2
Writing library                  : Nandub build 1853/release

Video
ID                               : 0
Format                           : MPEG-4 Visual
Format profile                   : Advanced Simple@L5
Format settings, BVOP            : 1
Format settings, QPel            : Yes
Format settings, GMC             : No warppoints
Format settings, Matrix          : Default (H.263)
Muxing mode                      : Packed bitstream
Codec ID                         : XVID
Codec ID/Hint                    : XviD
Duration                         : 2h 0mn
Bit rate                         : 1 774 Kbps
Width                            : 720 pixels
Height                           : 384 pixels
Display aspect ratio             : 1.850
Frame rate                       : 24.000 fps
Color space                      : YUV
Chroma subsampling               : 4:2:0
Bit depth                        : 8 bits
Scan type                        : Progressive
Compression mode                 : Lossy
Bits/(Pixel*Frame)               : 0.267
Stream size                      : 1.49 GiB (82%)
Writing library                  : XviD 1.2.1 (UTC 2008-12-04)

Audio
ID                               : 1
Format                           : AC-3
Format/Info                      : Audio Coding 3
Mode extension                   : CM (complete main)
Codec ID                         : 2000
Duration                         : 2h 0mn
Bit rate mode                    : Constant
Bit rate                         : 384 Kbps
Channel(s)                       : 6 channels
Channel positions                : Front: L C R, Side: L R, LFE
Sampling rate                    : 48.0 KHz
Bit depth                        : 16 bits
Compression mode                 : Lossy
Stream size                      : 330 MiB (18%)
Alignment                        : Split accross interleaves
Interleave, duration             : 42 ms (1.00 video frame)
Interleave, preload duration     : 500 ms


Daniel Henshall	... 	John Bunting
Lucas Pittaway	... 	Jamie Vlassakis
Craig Coyne	... 	Ray
Louise Harris	... 	Elizabeth Harvey
Richard Green	... 	Barry


When 16 year-old Jamie begins a friendship with a charismatic man, his world becomes threatened 
by his loyalty and fear of his newfound father figure, John Bunting: Australia's most notorious serial killer. 


[img]http://img708.imageshack.us/img708/4805/26092466.png[/img]
[img]http://img40.imageshack.us/img40/7986/snsn.png[/img]
[img]http://img402.imageshack.us/img402/3323/snsnsn.png[/img]
[img]http://img16.imageshack.us/img16/9638/snsnsnsn.png[/img]
[img]http://img153.imageshack.us/img153/1340/snsnsnsnsn.png[/img]
[img]http://img13.imageshack.us/img13/9548/snsnsnsnsnsn.png[/img]





Greetz

ViSiON,SiC,SANTi,3LT0N,YanKeeS,MAGNET,THC,T0XiC,LKRG,FANTASIA-PLAY,FANTASIA-M,BHRG,
D2U,WBZ,FLAWL3SS,NOVA,Vik,Rapeseed,SAFC,goldadvance,MEMORY100,scumbag,KaN1vE,Unevano,Pinnz,
Mr Hive,Wayne,cedrict wink,and all P2P groups


LOOKING FOR ANYTHING YOU WANT TO LOOK AND SOUND BETTER



CM8@hushmail.com